<svg width="40" height="41" viewBox="0 0 40 41" fill="none" xmlns="http://www.w3.org/2000/svg">
<rect y="0.5" width="40" height="40" rx="20" fill="white"/>
<g clip-path="url(#clip0_14_200)">
<path d="M30.2534 23.0363C30.2534 23.0363 30.4736 22.8161 30.9139 22.3758C31.3542 21.9355 31.5743 21.096 31.5743 19.8571C31.5743 18.6183 31.134 17.5586 30.2534 16.678C29.3728 15.7974 28.3131 15.3571 27.0743 15.3571C25.8355 15.3571 24.7757 15.7974 23.8952 16.678C23.0146 17.5586 22.5743 18.6183 22.5743 19.8571C22.5743 21.096 23.0146 22.1557 23.8952 23.0363C24.7757 23.9169 25.8355 24.3571 27.0743 24.3571C28.3131 24.3571 29.3728 23.9169 30.2534 23.0363ZM36.7172 28.2143C36.7172 28.5625 36.5899 28.8638 36.3355 29.1183C36.081 29.3728 35.7797 29.5 35.4314 29.5C35.0698 29.5 34.7685 29.3728 34.5274 29.1183L31.0821 25.683C29.8834 26.5134 28.5475 26.9286 27.0743 26.9286C26.1167 26.9286 25.201 26.7427 24.3271 26.3711C23.4532 25.9994 22.6999 25.4972 22.067 24.8644C21.4342 24.2316 20.932 23.4782 20.5603 22.6044C20.1887 21.7305 20.0029 20.8147 20.0029 19.8571C20.0029 18.8996 20.1887 17.9838 20.5603 17.1099C20.932 16.236 21.4342 15.4827 22.067 14.8499C22.6999 14.2171 23.4532 13.7148 24.3271 13.3432C25.201 12.9715 26.1167 12.7857 27.0743 12.7857C28.0319 12.7857 28.9476 12.9715 29.8215 13.3432C30.6954 13.7148 31.4487 14.2171 32.0816 14.8499C32.7144 15.4827 33.2166 16.236 33.5882 17.1099C33.9599 17.9838 34.1457 18.8996 34.1457 19.8571C34.1457 21.3304 33.7305 22.6663 32.9002 23.865L36.3455 27.3103C36.5933 27.558 36.7172 27.8594 36.7172 28.2143Z" fill="black"/>
</g>
<defs>
<clipPath id="clip0_14_200">
<rect width="16.72" height="18" fill="white" transform="matrix(1 0 0 -1 20 29.5)"/>
</clipPath>
</defs>
</svg>
