<svg width="45" height="45" viewBox="0 0 45 45" fill="none" xmlns="http://www.w3.org/2000/svg">
<rect width="45" height="45" rx="22.5" fill="black"/>
<g clip-path="url(#clip0_14_184)">
<path d="M28.9186 27.0525C28.9186 27.7824 28.7093 28.4085 28.2908 28.9308C27.8723 29.4531 27.3683 29.7143 26.7791 29.7143H18.2009C17.6117 29.7143 17.1077 29.4531 16.6892 28.9308C16.2707 28.4085 16.0614 27.7824 16.0614 27.0525C16.0614 26.4833 16.0899 25.9459 16.1468 25.4403C16.2037 24.9347 16.3092 24.4258 16.4632 23.9135C16.6172 23.4012 16.8131 22.9626 17.0508 22.5977C17.2885 22.2327 17.6033 21.9347 17.995 21.7037C18.3868 21.4727 18.8371 21.3572 19.346 21.3572C20.2233 22.2143 21.2712 22.6429 22.49 22.6429C23.7087 22.6429 24.7567 22.2143 25.634 21.3572C26.1429 21.3572 26.5932 21.4727 26.985 21.7037C27.3767 21.9347 27.6915 22.2327 27.9292 22.5977C28.1669 22.9626 28.3628 23.4012 28.5168 23.9135C28.6708 24.4258 28.7763 24.9347 28.8332 25.4403C28.8901 25.9459 28.9186 26.4833 28.9186 27.0525ZM25.2171 15.4157C25.2171 15.4157 25.4055 15.6041 25.7821 15.9808C26.1588 16.3574 26.3471 17.0781 26.3471 18.1429C26.3471 19.2076 25.9705 20.1166 25.2171 20.87C24.4638 21.6233 23.5547 22 22.49 22C21.4253 22 20.5162 21.6233 19.7629 20.87C19.0095 20.1166 18.6329 19.2076 18.6329 18.1429C18.6329 17.0781 19.0095 16.1691 19.7629 15.4157C20.5162 14.6624 21.4253 14.2857 22.49 14.2857C23.5547 14.2857 24.4638 14.6624 25.2171 15.4157Z" fill="white"/>
</g>
<defs>
<clipPath id="clip0_14_184">
<rect width="12.86" height="18" fill="white" transform="matrix(1 0 0 -1 16.06 31)"/>
</clipPath>
</defs>
</svg>
