<svg width="6" height="15" viewBox="0 0 6 15" fill="none" xmlns="http://www.w3.org/2000/svg">
<g clip-path="url(#clip0_27_2286)">
<path d="M4.70068 7.97632C4.75277 8.0284 4.77881 8.0883 4.77881 8.15601C4.77881 8.22371 4.75277 8.28361 4.70068 8.33569L1.06006 11.9763C1.00798 12.0284 0.948079 12.0544 0.880371 12.0544C0.812663 12.0544 0.752767 12.0284 0.700684 11.9763L0.310059 11.5857C0.257975 11.5336 0.231934 11.4737 0.231934 11.406C0.231934 11.3383 0.257975 11.2784 0.310059 11.2263L3.38037 8.15601L0.310059 5.08569C0.257975 5.03361 0.231934 4.97371 0.231934 4.90601C0.231934 4.8383 0.257975 4.7784 0.310059 4.72632L0.700684 4.33569C0.752767 4.28361 0.812663 4.25757 0.880371 4.25757C0.948079 4.25757 1.00798 4.28361 1.06006 4.33569L4.70068 7.97632Z" fill="black"/>
</g>
<defs>
<clipPath id="clip0_27_2286">
<rect width="5" height="14" fill="white" transform="matrix(1 0 0 -1 0.130371 14.656)"/>
</clipPath>
</defs>
</svg>
