<svg width="10" height="14" viewBox="0 0 10 14" fill="none" xmlns="http://www.w3.org/2000/svg">
<g clip-path="url(#clip0_15_271)">
<path d="M8.34033 5.57031C8.39242 5.6224 8.41846 5.68229 8.41846 5.75C8.41846 5.81771 8.39242 5.8776 8.34033 5.92969L4.69971 9.57031C4.64762 9.6224 4.58773 9.64844 4.52002 9.64844C4.45231 9.64844 4.39242 9.6224 4.34033 9.57031L0.699707 5.92969C0.647624 5.8776 0.621582 5.81771 0.621582 5.75C0.621582 5.68229 0.647624 5.6224 0.699707 5.57031L1.09033 5.17969C1.14242 5.1276 1.20231 5.10156 1.27002 5.10156C1.33773 5.10156 1.39762 5.1276 1.44971 5.17969L4.52002 8.25L7.59033 5.17969C7.64242 5.1276 7.70231 5.10156 7.77002 5.10156C7.83773 5.10156 7.89762 5.1276 7.94971 5.17969L8.34033 5.57031Z" fill="white"/>
</g>
<defs>
<clipPath id="clip0_15_271">
<rect width="9" height="14" fill="white" transform="matrix(1 0 0 -1 0.0200195 14)"/>
</clipPath>
</defs>
</svg>
