<svg width="45" height="45" viewBox="0 0 45 45" fill="none" xmlns="http://www.w3.org/2000/svg">
<mask id="path-1-inside-1_14_187" fill="white">
<path d="M0 22.5C0 10.0736 10.0736 0 22.5 0C34.9264 0 45 10.0736 45 22.5C45 34.9264 34.9264 45 22.5 45C10.0736 45 0 34.9264 0 22.5Z"/>
</mask>
<path d="M0 22.5C0 10.0736 10.0736 0 22.5 0C34.9264 0 45 10.0736 45 22.5C45 34.9264 34.9264 45 22.5 45C10.0736 45 0 34.9264 0 22.5Z" fill="black"/>
<path d="M0 0H45H0ZM45 45H0H45ZM0 45V0V45ZM23.5 0C35.9264 0 46 10.0736 46 22.5C46 34.9264 35.9264 45 23.5 45H22.5C34.3741 45 44 34.9264 44 22.5C44 10.0736 34.3741 0 22.5 0H23.5Z" fill="black" mask="url(#path-1-inside-1_14_187)"/>
<g clip-path="url(#clip0_14_187)">
<path d="M30.99 20.7143C31.3449 20.7143 31.6479 20.8398 31.899 21.091C32.1502 21.3421 32.2757 21.6451 32.2757 22C32.2757 22.3549 32.1502 22.6579 31.899 22.909C31.6479 23.1602 31.3449 23.2857 30.99 23.2857H30.8393L29.6842 29.9353C29.6306 30.2433 29.4833 30.4978 29.2422 30.6987C29.0012 30.8996 28.7266 31 28.4186 31H15.5614C15.2534 31 14.9788 30.8996 14.7378 30.6987C14.4967 30.4978 14.3494 30.2433 14.2958 29.9353L13.1407 23.2857H12.99C12.6351 23.2857 12.3321 23.1602 12.081 22.909C11.8298 22.6579 11.7043 22.3549 11.7043 22C11.7043 21.6451 11.8298 21.3421 12.081 21.091C12.3321 20.8398 12.6351 20.7143 12.99 20.7143H30.99ZM16.5759 28.75C16.75 28.7366 16.8957 28.6613 17.0129 28.524C17.1301 28.3867 17.182 28.231 17.1686 28.0569L16.8471 23.8783C16.8337 23.7042 16.7584 23.5586 16.6211 23.4414C16.4839 23.3242 16.3282 23.2723 16.1541 23.2857C15.98 23.2991 15.8343 23.3744 15.7171 23.5117C15.5999 23.649 15.548 23.8047 15.5614 23.9788L15.8829 28.1574C15.8962 28.3248 15.9649 28.4654 16.0888 28.5792C16.2127 28.6931 16.3583 28.75 16.5257 28.75H16.5759ZM20.7043 28.1071V23.9286C20.7043 23.7545 20.6407 23.6038 20.5134 23.4766C20.3862 23.3493 20.2355 23.2857 20.0614 23.2857C19.8873 23.2857 19.7367 23.3493 19.6094 23.4766C19.4822 23.6038 19.4186 23.7545 19.4186 23.9286V28.1071C19.4186 28.2812 19.4822 28.4319 19.6094 28.5592C19.7367 28.6864 19.8873 28.75 20.0614 28.75C20.2355 28.75 20.3862 28.6864 20.5134 28.5592C20.6407 28.4319 20.7043 28.2812 20.7043 28.1071ZM24.5614 28.1071V23.9286C24.5614 23.7545 24.4978 23.6038 24.3706 23.4766C24.2433 23.3493 24.0927 23.2857 23.9186 23.2857C23.7445 23.2857 23.5938 23.3493 23.4666 23.4766C23.3393 23.6038 23.2757 23.7545 23.2757 23.9286V28.1071C23.2757 28.2812 23.3393 28.4319 23.4666 28.5592C23.5938 28.6864 23.7445 28.75 23.9186 28.75C24.0927 28.75 24.2433 28.6864 24.3706 28.5592C24.4978 28.4319 24.5614 28.2812 24.5614 28.1071ZM28.0971 28.1574L28.4186 23.9788C28.432 23.8047 28.3801 23.649 28.2629 23.5117C28.1457 23.3744 28 23.2991 27.8259 23.2857C27.6518 23.2723 27.4961 23.3242 27.3589 23.4414C27.2216 23.5586 27.1462 23.7042 27.1329 23.8783L26.8114 28.0569C26.798 28.231 26.8499 28.3867 26.9671 28.524C27.0843 28.6613 27.23 28.7366 27.4041 28.75H27.4543C27.6217 28.75 27.7673 28.6931 27.8912 28.5792C28.0151 28.4654 28.0837 28.3248 28.0971 28.1574ZM16.4855 15.933L15.5514 20.0714H14.2255L15.24 15.6417C15.3672 15.0525 15.6652 14.572 16.134 14.2003C16.6027 13.8287 17.1384 13.6429 17.7411 13.6429H19.4186C19.4186 13.4688 19.4822 13.3181 19.6094 13.1908C19.7367 13.0636 19.8873 13 20.0614 13H23.9186C24.0927 13 24.2433 13.0636 24.3706 13.1908C24.4978 13.3181 24.5614 13.4688 24.5614 13.6429H26.2389C26.8416 13.6429 27.3773 13.8287 27.846 14.2003C28.3148 14.572 28.6128 15.0525 28.74 15.6417L29.7545 20.0714H28.4286L27.4945 15.933C27.4208 15.6384 27.2685 15.3973 27.0374 15.2098C26.8064 15.0223 26.5402 14.9286 26.2389 14.9286H24.5614C24.5614 15.1027 24.4978 15.2533 24.3706 15.3806C24.2433 15.5078 24.0927 15.5714 23.9186 15.5714H20.0614C19.8873 15.5714 19.7367 15.5078 19.6094 15.3806C19.4822 15.2533 19.4186 15.1027 19.4186 14.9286H17.7411C17.4398 14.9286 17.1736 15.0223 16.9426 15.2098C16.7115 15.3973 16.5592 15.6384 16.4855 15.933Z" fill="white"/>
</g>
<defs>
<clipPath id="clip0_14_187">
<rect width="20.58" height="18" fill="white" transform="matrix(1 0 0 -1 11.7 31)"/>
</clipPath>
</defs>
</svg>
