<svg width="45" height="45" viewBox="0 0 45 45" fill="none" xmlns="http://www.w3.org/2000/svg">
<rect width="45" height="45" rx="22.5" fill="black"/>
<path d="M30.3 27.6631C30.3 27.8842 30.259 28.173 30.1771 28.5293C30.0952 28.8856 30.0092 29.1662 29.9191 29.3709C29.7471 29.7805 29.2474 30.2146 28.4201 30.6734C27.6501 31.0911 26.8883 31.3 26.1347 31.3C25.9136 31.3 25.6965 31.2857 25.4835 31.257C25.2705 31.2283 25.035 31.1771 24.777 31.1034C24.519 31.0297 24.3265 30.9703 24.1995 30.9252C24.0726 30.8802 23.8453 30.7962 23.5176 30.6734C23.19 30.5505 22.9893 30.4768 22.9156 30.4522C22.1128 30.1655 21.3961 29.8256 20.7653 29.4324C19.725 28.7853 18.6438 27.9006 17.5216 26.7784C16.3994 25.6562 15.5147 24.5749 14.8676 23.5346C14.4744 22.9039 14.1345 22.1872 13.8478 21.3844C13.8232 21.3107 13.7495 21.11 13.6266 20.7824C13.5038 20.4547 13.4198 20.2274 13.3748 20.1004C13.3297 19.9735 13.2703 19.781 13.1966 19.523C13.1229 19.2649 13.0717 19.0294 13.043 18.8165C13.0143 18.6035 13 18.3864 13 18.1653C13 17.4117 13.2089 16.6499 13.6266 15.8799C14.0853 15.0526 14.5195 14.5529 14.929 14.3809C15.1338 14.2908 15.4144 14.2048 15.7707 14.1229C16.127 14.0409 16.4158 14 16.6369 14C16.7516 14 16.8376 14.0123 16.895 14.0368C17.0424 14.086 17.2595 14.3973 17.5462 14.9707C17.6363 15.1263 17.7591 15.3475 17.9148 15.6341C18.0704 15.9208 18.2138 16.1809 18.3448 16.4144C18.4759 16.6478 18.6028 16.8669 18.7257 17.0717C18.7503 17.1045 18.822 17.2069 18.9407 17.3789C19.0595 17.5509 19.1476 17.6963 19.2049 17.8151C19.2622 17.9339 19.2909 18.0506 19.2909 18.1653C19.2909 18.3291 19.1742 18.5339 18.9407 18.7796C18.7073 19.0253 18.4533 19.2506 18.1789 19.4554C17.9045 19.6602 17.6506 19.8772 17.4172 20.1066C17.1837 20.3359 17.067 20.5243 17.067 20.6718C17.067 20.7455 17.0875 20.8377 17.1284 20.9482C17.1694 21.0588 17.2042 21.1428 17.2328 21.2001C17.2615 21.2575 17.3189 21.3558 17.4049 21.495C17.4909 21.6343 17.538 21.7121 17.5462 21.7285C18.1687 22.8507 18.8813 23.8132 19.6841 24.6159C20.4868 25.4186 21.4493 26.1313 22.5715 26.7538C22.5879 26.762 22.6657 26.8091 22.805 26.8951C22.9442 26.9811 23.0425 27.0385 23.0999 27.0671C23.1572 27.0958 23.2412 27.1306 23.3517 27.1716C23.4623 27.2125 23.5545 27.233 23.6282 27.233C23.7756 27.233 23.964 27.1163 24.1934 26.8828C24.4228 26.6494 24.6398 26.3955 24.8446 26.121C25.0494 25.8466 25.2746 25.5927 25.5204 25.3593C25.7661 25.1258 25.9709 25.0091 26.1347 25.0091C26.2494 25.0091 26.3661 25.0377 26.4849 25.0951C26.6037 25.1524 26.7491 25.2405 26.9211 25.3593C27.0931 25.478 27.1955 25.5497 27.2283 25.5743C27.433 25.6971 27.6522 25.8241 27.8856 25.9552C28.1191 26.0862 28.3791 26.2296 28.6658 26.3852C28.9525 26.5408 29.1737 26.6637 29.3293 26.7538C29.9027 27.0405 30.214 27.2576 30.2631 27.405C30.2877 27.4624 30.3 27.5484 30.3 27.6631Z" fill="white"/>
</svg>
