<svg width="18" height="18" viewBox="0 0 18 18" fill="none" xmlns="http://www.w3.org/2000/svg">
<path d="M17.3 13.6631C17.3 13.8842 17.259 14.173 17.1771 14.5293C17.0952 14.8856 17.0092 15.1662 16.9191 15.3709C16.7471 15.7805 16.2474 16.2146 15.4201 16.6734C14.6501 17.0911 13.8883 17.3 13.1347 17.3C12.9136 17.3 12.6965 17.2857 12.4835 17.257C12.2705 17.2283 12.0351 17.1771 11.777 17.1034C11.519 17.0297 11.3265 16.9703 11.1995 16.9252C11.0726 16.8802 10.8453 16.7962 10.5176 16.6734C10.19 16.5505 9.98928 16.4768 9.91555 16.4522C9.11281 16.1655 8.39607 15.8256 7.76534 15.4324C6.72505 14.7853 5.6438 13.9006 4.52159 12.7784C3.39938 11.6562 2.51473 10.5749 1.86761 9.53465C1.47443 8.90392 1.13449 8.18718 0.847798 7.38443C0.823224 7.31071 0.749503 7.11003 0.626634 6.78237C0.503764 6.45472 0.419804 6.22741 0.374751 6.10045C0.329699 5.97348 0.270313 5.78099 0.196591 5.52296C0.122869 5.26494 0.0716738 5.02944 0.0430043 4.81646C0.0143348 4.60349 0 4.38642 0 4.16526C0 3.41166 0.208878 2.64987 0.626634 1.87989C1.08535 1.05257 1.51948 0.552898 1.92905 0.380882C2.13383 0.290777 2.41438 0.204769 2.7707 0.122856C3.12702 0.0409431 3.41577 -1.33514e-05 3.63693 -1.33514e-05C3.75161 -1.33514e-05 3.83762 0.0122738 3.89496 0.0368481C4.0424 0.0859966 4.25947 0.397264 4.54616 0.970655C4.63627 1.12629 4.75914 1.34745 4.91477 1.63415C5.07041 1.92084 5.21376 2.18092 5.34482 2.41437C5.47588 2.64782 5.60284 2.86694 5.72571 3.07172C5.75028 3.10449 5.82196 3.20688 5.94073 3.37889C6.05951 3.55091 6.14756 3.69631 6.2049 3.81508C6.26224 3.93385 6.29091 4.05058 6.29091 4.16526C6.29091 4.32908 6.17418 4.53386 5.94073 4.7796C5.70728 5.02534 5.45335 5.2506 5.17894 5.45539C4.90453 5.66017 4.6506 5.87724 4.41715 6.10659C4.1837 6.33595 4.06697 6.52435 4.06697 6.67179C4.06697 6.74551 4.08745 6.83766 4.12841 6.94825C4.16937 7.05883 4.20418 7.14279 4.23285 7.20013C4.26152 7.25747 4.31886 7.35576 4.40487 7.49502C4.49087 7.63427 4.53797 7.71208 4.54616 7.72847C5.1687 8.85067 5.88134 9.81315 6.68409 10.6159C7.48684 11.4186 8.44931 12.1313 9.57152 12.7538C9.5879 12.762 9.66572 12.8091 9.80497 12.8951C9.94422 12.9811 10.0425 13.0385 10.0999 13.0671C10.1572 13.0958 10.2412 13.1306 10.3517 13.1716C10.4623 13.2125 10.5545 13.233 10.6282 13.233C10.7756 13.233 10.964 13.1163 11.1934 12.8828C11.4228 12.6494 11.6398 12.3955 11.8446 12.121C12.0494 11.8466 12.2746 11.5927 12.5204 11.3593C12.7661 11.1258 12.9709 11.0091 13.1347 11.0091C13.2494 11.0091 13.3661 11.0377 13.4849 11.0951C13.6037 11.1524 13.7491 11.2405 13.9211 11.3593C14.0931 11.478 14.1955 11.5497 14.2283 11.5743C14.4331 11.6971 14.6522 11.8241 14.8856 11.9552C15.1191 12.0862 15.3791 12.2296 15.6658 12.3852C15.9525 12.5408 16.1737 12.6637 16.3293 12.7538C16.9027 13.0405 17.214 13.2576 17.2631 13.405C17.2877 13.4624 17.3 13.5484 17.3 13.6631Z" fill="white"/>
</svg>
