<svg width="17" height="18" viewBox="0 0 17 18" fill="none" xmlns="http://www.w3.org/2000/svg">
<path d="M10.2534 11.0363C10.2534 11.0363 10.4736 10.8161 10.9139 10.3758C11.3542 9.93555 11.5743 9.09598 11.5743 7.85714C11.5743 6.6183 11.134 5.55859 10.2534 4.67801C9.37285 3.79743 8.31314 3.35714 7.0743 3.35714C5.83546 3.35714 4.77575 3.79743 3.89517 4.67801C3.01459 5.55859 2.5743 6.6183 2.5743 7.85714C2.5743 9.09598 3.01459 10.1557 3.89517 11.0363C4.77575 11.9169 5.83546 12.3571 7.0743 12.3571C8.31314 12.3571 9.37285 11.9169 10.2534 11.0363ZM16.7172 16.2143C16.7172 16.5625 16.5899 16.8638 16.3355 17.1183C16.081 17.3728 15.7797 17.5 15.4314 17.5C15.0698 17.5 14.7685 17.3728 14.5274 17.1183L11.0821 13.683C9.88345 14.5134 8.54751 14.9286 7.0743 14.9286C6.11671 14.9286 5.20097 14.7427 4.32709 14.3711C3.4532 13.9994 2.69986 13.4972 2.06704 12.8644C1.43423 12.2316 0.931998 11.4782 0.560346 10.6044C0.188695 9.73047 0.00286865 8.81473 0.00286865 7.85714C0.00286865 6.89955 0.188695 5.98382 0.560346 5.10993C0.931998 4.23605 1.43423 3.4827 2.06704 2.84989C2.69986 2.21708 3.4532 1.71484 4.32709 1.34319C5.20097 0.97154 6.11671 0.785715 7.0743 0.785715C8.03189 0.785715 8.94762 0.97154 9.82151 1.34319C10.6954 1.71484 11.4487 2.21708 12.0816 2.84989C12.7144 3.4827 13.2166 4.23605 13.5882 5.10993C13.9599 5.98382 14.1457 6.89955 14.1457 7.85714C14.1457 9.33036 13.7305 10.6663 12.9002 11.865L16.3455 15.3103C16.5933 15.558 16.7172 15.8594 16.7172 16.2143Z" fill="black"/>
</svg>
